/* XPM */
static char *_85c7e7f4ed14011d229a3346bdbac33HFaJRLrjQECAPeaj[] = {
/* columns rows colors chars-per-pixel */
"40 40 16 1 ",
"  c #020200",
". c #030200",
"X c #030301",
"o c gray1",
"O c #040301",
"+ c #060201",
"@ c #040203",
"# c #070302",
"$ c #040402",
"% c #050402",
"& c #050503",
"* c #060503",
"= c #050304",
"- c #040404",
"; c #070604",
": c #080403",
/* pixels */
"ooooooooooo--ooo@%%%%%%@@@@%%%%%%%%--%%%",
"oooooooooooooooo%%%%%%%%@@@%%%%%%%%%%%%%",
"oooooooooooooooo%%%%%%%%@@%%%%%%%%%%%%%%",
"oooooooooooooooo%%%%%%%%@%%%%%%%%%%%%%%%",
"oooooooooooooooo%%%%%%%%%%%%%%%%%%%%%%%%",
"oooooooooooooooo%%%%%%%%%%%%%%%%%%%@@%%%",
"oooooooooooooooo%%%%%%%%%%%%%%%%%%%oo%%%",
"oooooooo-oooooo-%%%@@%%%%%%%%%%%%%%oo%%%",
"o----ooo------oo@%%%%%%@%%%%%@@o%%%%%%%%",
"oo----oo------oo@@%%%%%%%%%%%%@@%%%%%%%%",
"@@=====@======@@@@@%%%%%%%%%%%%@oo%%%%oo",
"@@@@==========@@@@@@%%%%%%%%%%%%oooooooo",
"@@@@====@@@@@@==@@@@####@@@@@@@%oooooooo",
"=@@@@@==@@@@@@==@@@@@##@@@@@@@@%@ooooooo",
"==@@@@==@@@@@@==@@@@@@##@@####:%%oooooo%",
"===@@@@=@@@@@@==#@@@@@@#:::::::%%%oooo%%",
"%%@@@@@@@@@@@@%@@@@@@@@@@%%%%%%%%%%%%%%@",
"%%%@@@@@@%%@@@@@@@@@@@@@@@%%%%%%%%%%%%%%",
"%%%%@@@@@@@@@@@%@@@@@@@@@@@%%%%%%%%%%%%%",
"%%%%%@@@@@@@@@@@@@@@@@@@@@@@@@%%%%%%%%%%",
"%%%%%%@@@@@@@@@@@@@@@@@@@@@@@@@%%%%%%%%%",
"%%%%%%%%@@@@@@@@@@@@@@@@@@@@@@%%%%%%%%%%",
"%%%%%%%%@@@%@@@@oooooooooooooo%%%%%%%%%%",
"%%%%%%%%@@@%@@@@oooooooo%ooooo%%%%%%%%%%",
"%%%@@%%%%%@@@@@@oooooooooooooooo@@%%%%%%",
"%%%%%%%%%%%@@@@@oooooooooooooooo@@%%%%%%",
"%%%%%%%%%%%%@@@@oooooooooooooooo@@%%%%%%",
"%%%%%%%%%%%%%@@@oooooooooooooooo@@%%%%%%",
"%%%%%%%%%%%%%@@@oooooooooooooooo@@@%%%%@",
"%%%%%%%%%%%%%@@@oooooooooooooooo@@@%%%@@",
"%%%%%%%%%%%%%@@ooooooooooooooooo@@@@%%@@",
"%%%%%%%%@@%%%@@oooooooooooooooooo@@@%@@@",
"%%%%%%%%@@@@oooooooooooooo@@@@@@@@@@@@%%",
"%%%%%%%%@@@@oooooooooooooo@@@@@@@@@@@@%%",
"%%%%%%%%@@@@oooooooooooooo@@@@@@@@@@@@%%",
"%%%%%%%%@@@@oooooooooooooo@@@@@@%@@@@%%%",
"%%%%%%%%@@oooooooooooooooo@@@@@%@@@%%%%%",
"%%%%%%%%@@oooooooooooooooo@@@%%%@@%%%%%%",
"========oooooooooooooooooo@@@%%%@@%%%%%%",
"=====@@@oooooooooooooooooo@@%%%%@@%%%%%%"
};
