/* XPM */
static char *_6afa82774ea4282dd9eece98267780cHxyAu7HRNNxYi1Bl[] = {
/* columns rows colors chars-per-pixel */
"40 40 221 2 ",
"   c #010101",
".  c #0A0301",
"X  c #050806",
"o  c #0C0A05",
"O  c #03030A",
"+  c #090409",
"@  c #040B0D",
"#  c #0C0A0B",
"$  c #130502",
"%  c #1B0A01",
"&  c #130B0C",
"*  c #1D0D08",
"=  c #130A06",
"-  c #0C100F",
";  c #13100E",
":  c #1D120C",
">  c #0E0D11",
",  c #140B13",
"<  c #1E0F16",
"1  c #0D1213",
"2  c #071110",
"3  c #151314",
"4  c #1B1613",
"5  c #19141C",
"6  c #151B1A",
"7  c #1B1A1C",
"8  c #1B1A15",
"9  c #230903",
"0  c #241914",
"q  c #221E1D",
"w  c #271616",
"e  c #391C19",
"r  c #321607",
"t  c #1D221A",
"y  c #22201D",
"u  c #3A2618",
"i  c #282202",
"p  c #1D1925",
"a  c #281923",
"s  c #331821",
"d  c #1E2324",
"f  c #1F2428",
"g  c #252124",
"h  c #2C2A2C",
"j  c #2A2624",
"k  c #342A25",
"l  c #352D2C",
"z  c #3C2A28",
"x  c #33312D",
"c  c #38302E",
"v  c #332934",
"b  c #353333",
"n  c #3A3434",
"m  c #3A3937",
"M  c #3B3A3A",
"N  c #373739",
"B  c #2D2A33",
"V  c #49181A",
"C  c #5B140E",
"Z  c #4B241E",
"A  c #452A17",
"S  c #53201C",
"D  c #4B3317",
"F  c #56331A",
"G  c #532D09",
"H  c #72251D",
"J  c #431D25",
"K  c #4B2B2F",
"L  c #422829",
"P  c #45372C",
"I  c #583B2D",
"U  c #4E2E31",
"Y  c #433A3A",
"T  c #473A39",
"R  c #5C3A3B",
"E  c #52343C",
"W  c #5A2D27",
"Q  c #672721",
"!  c #623E24",
"~  c #41413D",
"^  c #4A443E",
"/  c #54443C",
"(  c #584637",
")  c #47432A",
"_  c #714A35",
"`  c #685937",
"'  c #774125",
"]  c #3A3253",
"[  c #2F274C",
"{  c #4A3C41",
"}  c #4A3B56",
"|  c #434443",
" . c #4A4644",
".. c #45454A",
"X. c #4B4B4B",
"o. c #494B46",
"O. c #554A49",
"+. c #56524A",
"@. c #555454",
"#. c #5A5552",
"$. c #5C5B5B",
"%. c #595857",
"&. c #564359",
"*. c #67574A",
"=. c #765745",
"-. c #614053",
";. c #655C58",
":. c #734F51",
">. c #63645D",
",. c #68625E",
"<. c #6E6A53",
"1. c #72645B",
"2. c #534360",
"3. c #5C5D62",
"4. c #6D5E64",
"5. c #6B5D78",
"6. c #656363",
"7. c #6B6564",
"8. c #6A646C",
"9. c #6C6A6A",
"0. c #686968",
"q. c #736763",
"w. c #7C6A64",
"e. c #716D6F",
"r. c #776A66",
"t. c #777468",
"y. c #776B73",
"u. c #757473",
"i. c #7B7B75",
"p. c #7C7C7A",
"a. c #78777A",
"s. c #8C4F3C",
"d. c #9D492D",
"f. c #86603B",
"g. c #845B47",
"h. c #937144",
"j. c #86675C",
"k. c #866E6B",
"l. c #837163",
"z. c #8B7C6D",
"x. c #887369",
"c. c #907365",
"v. c #816C73",
"b. c #847A74",
"n. c #8B7C73",
"m. c #82797B",
"M. c #877477",
"N. c #C77559",
"B. c #AD885A",
"V. c #B08457",
"C. c #84817C",
"Z. c #87847D",
"A. c #978879",
"S. c #96917A",
"D. c #99846F",
"F. c #B6936F",
"G. c #B3A578",
"H. c #CD8B4F",
"J. c #CE9B59",
"K. c #F8B56E",
"L. c #7B7A82",
"P. c #807980",
"I. c #917D82",
"U. c #7F8383",
"Y. c #828282",
"T. c #898484",
"R. c #8C8B8A",
"E. c #808589",
"W. c #94918B",
"Q. c #9B9B9A",
"!. c #999994",
"~. c #908788",
"^. c #A08E88",
"/. c #A9A39A",
"(. c #B0AA9C",
"). c #B5A886",
"_. c #AAA7A5",
"`. c #B1AAA6",
"'. c #B1B1AD",
"]. c #B3B4B3",
"[. c #BBBBB8",
"{. c #BAB7B0",
"}. c #C0A18F",
"|. c #C9B98B",
" X c #C0B693",
".X c #D4AF94",
"XX c #D0B2B2",
"oX c #C5BDB0",
"OX c #FFD385",
"+X c #C2C3BE",
"@X c #FFEFB1",
"#X c #FFF3B1",
"$X c #C1BEC9",
"%X c #C5C4C3",
"&X c #CAC8C7",
"*X c #D4CACB",
"=X c #CAD0CC",
"-X c #D3D2CE",
";X c #DAD5C2",
":X c #CEC9D0",
">X c #D1CFD2",
",X c #DBD9D6",
"<X c #E2D5CC",
"1X c #E3DCD9",
"2X c #EACDC7",
"3X c #FFE0CD",
"4X c #F6F1DE",
"5X c #E6E1DB",
"6X c #E0D9E1",
"7X c #E4E4E2",
"8X c #EBE5E4",
"9X c #EDEEE9",
"0X c #E6E5E8",
"qX c #F7EAE7",
"wX c #FDFCED",
"eX c #F8F5E7",
"rX c #F5EFF1",
"tX c #FAF6F2",
"yX c #FDFDF4",
"uX c #FEFDFB",
"iX c #F4F4F4",
/* pixels */
"                      X       j P P E { t               +                       ",
"                  O         n Z.*.;.^.I.b d 6                                   ",
"                X   X       q ,.t.t.x.1.q N 6                                   ",
"                      X   & 4 4 ;.n.z.w., B f X                                 ",
"                  O       q k 0 k n.l.z.T 5 M 2                                 ",
"                O   @     o w P b.n.D.D.w.& d @                                 ",
"                        . 0 w.A.*.u D A j.1.3 >                                 ",
"                      . * *.l.( ` |.F.h.F :.4.O.                                ",
"              X       . 0 u e r B.#XOXJ.F r w w * .                         X   ",
"                    . $ / x.c.=.V.@XK.H.' W R R e $     . .                   X ",
"X                     . z *.=._ s.N.N.d.Q V J L 9 .           X     X           ",
"  O       x m n x l c z P L u Z S Q H C V K K L z k x b l l b b N X   X         ",
"  X       ~ $.6.9.9.9.7.7.q.w.n.n.O.e U r.m.9.q.q.q.7.7.8.y.8.$.| #             ",
"            X # # , 3 , & & & 4 o 4 w < 7 3 1 1 o & & , , , >   X   X           ",
"                    # 5 5 p 5 4 1.z./ T , 3 6 1 7 3 + +                 X       ",
"                    7 ..8.a.$.Y oXeX<XZ.b ..o.0.9.M +                       X   ",
"                    h Y.;.,.#.r.,XyXuX&Xe.@.>.#.>.7.X                           ",
"                    g C.+.= .  .8XuXuX>X6.o   ) <.<.. #   +                     ",
"                    k A. Xi   @.9XuXuX:X4.: % G.|.` u T.X.#                     ",
"                O   0 A.).o   X.7X9XrX8Xm.. . G.|.` / uXuX`.3                   ",
"                  N ;.b.A.(._.].9Xt.^ *X*X_./.S.S.t.#.e.8XyXj                   ",
"                  x e.T.m.tXyX'./.!.t.oXm.uXuXW.i.C.n Y 5XuX$.                  ",
"                    3 ..3.iXyXwX/.`.%XW.uXuXuX7. .x y ,XyXuXqXj                 ",
"                  .   X 1 X./.<X1X6X,X0X$Xa.$.4 =   >.tXuXuXyX^                 ",
"        O O                 = a v ] [ ] ] p   .   . ~ R.,X=XZ.t                 ",
"        O O         X     . s -.&.5.5.} 2.} v $ o   M p.a.p.i.t                 ",
"        O                 : J :.XXqX2Xk.L z v.{ . . q m.C.a.U.f                 ",
"        O             O ; k.:.Z j.3XeX}.e M.I.M.n   5 a.p.p.L.p                 ",
"                        : =.g..X! =. X( z y.m.~.%.  p a.p.i.8.,                 ",
"                  q : % D D.F._ A A I ^.>.Y u.p.X.  %.U.U.u.a +                 ",
"                  6 / F .XV.! u *.;X4X1X{.M 9.[.R.7 b $.$.@.3                   ",
"                @ | *.=.f.G 9 P wXwXwXyX9Xm ].uXuX%.7 x h g                     ",
"    X         7 ].&XY O.0 * k `.yXyXyXyXuX+.'.uXuXX.g N b 3                     ",
"            $.,X-XR.i.b O.3 n tXuXtXuXuXuX+X9.&Xe.N h j 3                       ",
"        h ].7XQ.u.R.x # j # { 1XuXtXuXuXrX-X| 3 X g g & +     O                 ",
"    7 Y.=X[.p.i.7.;       4 n %XuXyXuXuX+Xu.p.| b &   +                         ",
"  3 !.].Q.u.u.~           b X.n T.,X-X[.%.p.p.6.# X +                           ",
"X   3 X.X.| X             b u.h & . 8 3 8 9.u.$.3           O                   ",
"                o     X   o.%X_.O.o ;   h '.%XY.3                               ",
"        X             o   6.uXyX-X#.4   m uXuX0X..  # X                         "
};
