/* XPM */
static char *_539d614181a4597807e9c29d4338c8buSadjyWuZjzXtk4i[] = {
/* columns rows colors chars-per-pixel */
"40 40 198 2 ",
"   c black",
".  c #010101",
"X  c #000002",
"o  c #010103",
"O  c #020202",
"+  c gray1",
"@  c #020204",
"#  c #030305",
"$  c #040404",
"%  c gray2",
"&  c #050507",
"*  c #060606",
"=  c #070707",
"-  c #070709",
";  c gray3",
":  c #090909",
">  c #09090B",
",  c gray4",
"<  c #0B0B0B",
"1  c #0A0A0C",
"2  c #0C0C0C",
"3  c gray5",
"4  c #0C0C0E",
"5  c #0E0E0E",
"6  c gray6",
"7  c #101010",
"8  c #111111",
"9  c #101012",
"0  c #111113",
"q  c gray7",
"w  c #131313",
"e  c #121214",
"r  c #131315",
"t  c gray8",
"y  c #151515",
"u  c #151517",
"i  c #161616",
"p  c gray9",
"a  c #161618",
"s  c #181818",
"d  c #191919",
"f  c #19191B",
"g  c gray10",
"h  c #1A1A1C",
"j  c #1D1D1D",
"k  c #1E1E1E",
"l  c gray12",
"z  c #202020",
"x  c gray13",
"c  c #222222",
"v  c #232323",
"b  c gray14",
"n  c #252525",
"m  c #272727",
"M  c #282828",
"N  c gray16",
"B  c #29292B",
"V  c #2A2A2A",
"C  c gray17",
"Z  c #2A2A2C",
"A  c #2C2C2C",
"S  c #2D2D2D",
"D  c gray18",
"F  c #2F2F2F",
"G  c #2E2E30",
"H  c #313131",
"J  c #323232",
"K  c gray20",
"L  c #393939",
"P  c #39393B",
"I  c gray23",
"U  c gray24",
"Y  c #414141",
"T  c gray26",
"R  c #434343",
"E  c gray27",
"W  c gray28",
"Q  c #494949",
"!  c gray29",
"~  c #4B4B4B",
"^  c #4C4C4C",
"/  c gray30",
"(  c #4E4E4E",
")  c #505050",
"_  c #515151",
"`  c gray32",
"'  c #535353",
"]  c #555555",
"[  c gray34",
"{  c #585858",
"}  c gray35",
"|  c #5A5A5A",
" . c #5B5B5B",
".. c gray36",
"X. c #5D5D5D",
"o. c gray37",
"O. c #5F5F5F",
"+. c #606060",
"@. c gray38",
"#. c #656565",
"$. c gray40",
"%. c #676767",
"&. c #686868",
"*. c DimGray",
"=. c #6A6A6A",
"-. c gray42",
";. c #6C6C6C",
":. c #6F6F6F",
">. c gray44",
",. c #717171",
"<. c #747474",
"1. c gray46",
"2. c #767676",
"3. c #777777",
"4. c #797979",
"5. c gray48",
"6. c #7B7B7B",
"7. c #7B7B7D",
"8. c #7C7C7C",
"9. c gray49",
"0. c #7C7C7E",
"q. c #7D7D7F",
"w. c #7E7E7E",
"e. c gray50",
"r. c #7E7E80",
"t. c #808080",
"y. c #818181",
"u. c #808082",
"i. c #818183",
"p. c gray51",
"a. c #828284",
"s. c gray52",
"d. c #848486",
"f. c #868686",
"g. c #888888",
"h. c #89898B",
"j. c #8B8B8D",
"k. c #8E8E8E",
"l. c gray59",
"z. c #979797",
"x. c #969698",
"c. c #989898",
"v. c gray60",
"b. c #9A9A9A",
"n. c #9B9B9B",
"m. c #9B9B9D",
"M. c gray61",
"N. c #9D9D9F",
"B. c gray62",
"V. c #9F9F9F",
"C. c #9E9EA0",
"Z. c #9F9FA1",
"A. c #A0A0A0",
"S. c gray63",
"D. c #A0A0A2",
"F. c #A1A1A3",
"G. c #A2A2A2",
"H. c gray64",
"J. c #A2A2A4",
"K. c #A3A3A5",
"L. c #A4A4A4",
"P. c #A5A5A5",
"I. c #A5A5A7",
"U. c gray65",
"Y. c #A7A7A7",
"T. c #A7A7A9",
"R. c gray66",
"E. c #A9A9A9",
"W. c #AAAAAA",
"Q. c gray67",
"!. c #ABABAD",
"~. c #ACACAC",
"^. c gray68",
"/. c #ACACAE",
"(. c #AEAEAE",
"). c #AFAFAF",
"_. c #AEAEB0",
"`. c #AFAFB1",
"'. c gray69",
"]. c #B1B1B1",
"[. c #B0B0B2",
"{. c #B1B1B3",
"}. c #B2B2B2",
"|. c gray70",
" X c #B4B4B4",
".X c gray71",
"XX c #B6B6B6",
"oX c #B7B7B7",
"OX c #B9B9B9",
"+X c #BBBBBB",
"@X c gray",
"#X c gray75",
"$X c #BFBFC1",
"%X c #C0C0C0",
"&X c #C3C3C3",
"*X c gray77",
"=X c #C5C5C5",
"-X c #C8C8C8",
/* pixels */
"W.l.*XW.^.L.S.@XW.^.c.XXXXW.^.c.%X].W.W.V.%XW.XXV.^.+XW.].c.XX^.`.!.x.$X`.].C.S.",
"q e.y.q s v L.| 2 s U ^.V s i :.V.i s v c.$.q i F ^.I s q | L.j i q j.g.1 s Z C.",
"  y.:.  % % W.U     F ].< <   $.V.  %   L.+.    j XXi %   ^ L.  -   7.a.    a V.",
"  e.4.    i W.T     J ^.i     *.l.  % < c.|     j ].F     ` W.    % y.e.@   2 J.",
"  1.1.    % W.Q     V ].s     *.S.    2 L.|     n ^.j     ^ S.%     f.r.  < r J.",
"  y.4.  % 2 ^.I     J ].<     *.c.      V.X.    j XXn     ` ^.    % e.y.    i m.",
"  e.1.    < L.W     V ].q     $.c.    % S.+.    v ^.n     ^ L.      e.e.@ @ r L.",
"  y.1.    2 W.T   % V ].2     *.c.    < V.|     j ].j     ` L.      e.y.    i C.",
"  e.1.    2 W.T     F ].2     *.V.    % S.|     v ].n     ^ L.      y.e.    i C.",
"  e.1.    2 W.T     F ].2     *.V.    % S.|     v ].n     ^ L.      y.e.    i C.",
"  e.1.    2 W.T     F ].2     *.V.    % S.|     v ].n     ` L.      y.e.    i C.",
"  e.1.    2 W.T     F ].2     *.V.    % S.|     v ].n     ` L.      y.e.    i C.",
"  e.1.    2 W.T     F ].2     *.V.    % S.|     v ].n     ` L.      y.e.    i V.",
"  e.1.    2 W.T     F ].2     *.V.    % S.|     v ].n     ` L.      y.e.    i V.",
"  e.1.    2 W.T     F ].2     *.V.    % S.|     v ].n     ` L.      y.e.    i V.",
"  e.1.    2 W.T     F ].2     *.V.    % S.|     v ].n     ` L.      y.e.    i V.",
"  e.1.    < W.T     F ].2     *.V.    % S.|     v ].n     ^ L.      y.e.    i S.",
"  e.1.    < W.T     J ].2     *.V.    % S.|     v ].n     ` L.      y.e.    i S.",
"  e.1.    < W.T     F ].2     *.c.    % S.|     v ].n     ` L.      y.e.    i S.",
"  e.1.    < W.T     F ].2     *.V.    % S.|     v ].n     ` L.      y.e.    i S.",
"  e.1.    < W.T     F ].2     *.V.    % S.|     v ].n     ` L.      y.e.    i S.",
"  e.1.    < W.T     F ].2     *.V.    % S.|     v ].n     ` L.      y.e.    i S.",
"  e.1.    < W.T     F ].2     *.V.    % S.|     v ].n     ` L.      y.e.    i S.",
"  e.1.    < W.T     F ].2     *.V.    % S.|     v ].n     ` L.      y.e.    i S.",
"  e.1.    2 W.T     F ].2     *.V.    % S.|     j ].n     ` L.      y.e.    a C.",
"  e.1.    2 W.T     F ].2     *.V.    % S.|     j ].n     ` L.      y.e.    a C.",
"  e.1.    2 W.T     F ].2     *.V.    % S.|     j ].n     ` L.      y.e.    a C.",
"  e.1.    2 W.T     F ].2     *.V.    % S.|     j ].n     ` L.      y.e.    a C.",
"  e.1.    2 W.T     F ].2     *.V.    % S.|     j ].n     ` L.      y.e.    a C.",
"  e.1.    2 W.T     F ].2     *.V.    % S.|     j ].n     ` L.      y.e.    a C.",
"  e.1.    2 W.T     F ].2     *.V.    % S.|     j ].n     ` L.      y.e.    a C.",
"  e.1.    2 W.T     F ].2     *.V.    % S.|     j ].n     ` L.      y.e.    a C.",
"  e.1.  % 2 L.T     J W.2 %   *.V.    < c.|     j ].v     ` W.      f.e.    a V.",
"  e.1.    2 W.T     J XXq     *.V.    < L.X.    j ].v     ` L.      e.4.%   f J.",
"  y.1.%   < W.T     V ^.<   % $.c.%     V.[     j ].v   % ` W.      y.1.@   q C.",
"  4.1.    2 W.T     F ].i     *.V.    < S.X.    j ^.n     ^ W.      f.e.  @ i J.",
"< 4.4.  % 2 W.W     F ^.q     *.V.    % V.X.    v ^.n     ^ L.%     4.e.    f V.",
"  y.1.  %   W.I     V ].%     $.c.  %   S.[     s ].s     Q W.      e.y.    r S.",
"n g.f.n V J ^.$.v F W XXU V V ,.S.V F J L.,.V V U ].Q n F X.XXF V F f.k.V G I S.",
"].l.*X^.].L.S.*X^.].V.XX+X^.XXc.*X].^.^.V.*XW.XXS.^.@XW.XXl.+X].].W.c.-X^.].T.V."
};
