/* XPM */
static char *b96dcf5872d447c5c73ba5b90009d3adXacDzxhmBIFGRhHI[] = {
/* columns rows colors chars-per-pixel */
"40 40 236 2 ",
"   c black",
".  c #010000",
"X  c #000100",
"o  c #010100",
"O  c #010101",
"+  c #030000",
"@  c #020100",
"#  c #020001",
"$  c #000200",
"%  c #010200",
"&  c #000300",
"*  c #030200",
"=  c #030301",
"-  c #000002",
";  c #010002",
":  c #000102",
">  c #000103",
",  c #010103",
"<  c #000202",
"1  c #000302",
"2  c #010302",
"3  c #000303",
"4  c #020202",
"5  c gray1",
"6  c #040000",
"7  c #050000",
"8  c #050100",
"9  c #060000",
"0  c #070000",
"q  c #060100",
"w  c #050200",
"e  c #060200",
"r  c #060201",
"t  c #040002",
"y  c #070003",
"u  c #070103",
"i  c #040203",
"p  c #020403",
"a  c #050400",
"s  c #040500",
"d  c #040601",
"f  c #070700",
"g  c #040402",
"h  c #050402",
"j  c #050503",
"k  c #050702",
"l  c #000004",
"z  c #010004",
"x  c #000104",
"c  c #000005",
"v  c #010005",
"b  c #000105",
"n  c #030104",
"m  c #000304",
"M  c #000205",
"N  c #020204",
"B  c #020305",
"V  c #030305",
"C  c #000106",
"Z  c #000107",
"A  c #030106",
"S  c #010206",
"D  c #000207",
"F  c #020307",
"G  c #050306",
"H  c #000404",
"J  c #000606",
"K  c #040404",
"L  c gray2",
"P  c #060405",
"I  c #060604",
"U  c #070506",
"Y  c #060606",
"T  c #070707",
"R  c #080000",
"E  c #0A0000",
"W  c #0B0000",
"Q  c #0B0001",
"!  c #090200",
"~  c #080300",
"^  c #0B0300",
"/  c #0D0000",
"(  c #0E0000",
")  c #0F0000",
"_  c #080500",
"`  c #0F0601",
"'  c #0D0502",
"]  c #070900",
"[  c #0B0800",
"{  c #080904",
"}  c #000208",
"|  c #000308",
" . c #000309",
".. c #040308",
"X. c #010508",
"o. c #030408",
"O. c #05060A",
"+. c #00090E",
"@. c #07080C",
"#. c gray3",
"$. c #090909",
"%. c #0B0B0B",
"&. c #0A0F0B",
"*. c #0D0B0E",
"=. c #0C0C0C",
"-. c #110000",
";. c #120200",
":. c #150300",
">. c #100B08",
",. c #140E0E",
"<. c #13120D",
"1. c #111111",
"2. c #151515",
"3. c #191C13",
"4. c #1E1915",
"5. c #181818",
"6. c #191919",
"7. c gray10",
"8. c #281500",
"9. c #2E1B0C",
"0. c #39250C",
"q. c #202020",
"w. c #212320",
"e. c #272622",
"r. c gray14",
"t. c gray15",
"y. c #272C28",
"u. c gray17",
"i. c #292F2B",
"p. c gray18",
"a. c #2F2F2F",
"s. c #30352F",
"d. c #323232",
"f. c gray20",
"g. c #373737",
"h. c gray23",
"j. c #493723",
"k. c #503929",
"l. c #473D34",
"z. c #59482A",
"x. c #5D4A39",
"c. c #5E4D3B",
"v. c #655138",
"b. c #6C583D",
"n. c #434343",
"m. c gray27",
"M. c #464646",
"N. c #484848",
"B. c #4C4C4C",
"V. c gray30",
"C. c #4E4E4E",
"Z. c #4C524E",
"A. c gray33",
"S. c #5C5451",
"D. c #5A5A5A",
"F. c #63594D",
"G. c #635B4E",
"H. c #605E52",
"J. c #5C615D",
"K. c #756446",
"L. c #7D654B",
"P. c #7F6A4D",
"I. c #6A6454",
"U. c #746756",
"Y. c #7E6853",
"T. c #7B6857",
"R. c #7F6F5F",
"E. c #626262",
"W. c gray39",
"Q. c #676767",
"!. c #6A6A6A",
"~. c gray42",
"^. c #6C6C6C",
"/. c #6D6D6D",
"(. c gray43",
"). c #70726F",
"_. c #7D7B6E",
"`. c gray45",
"'. c gray49",
"]. c #806B4E",
"[. c #817869",
"{. c #837872",
"}. c #998467",
"|. c #99846F",
" X c #988670",
".X c #988878",
"XX c #A28A6E",
"oX c #AE967A",
"OX c #808080",
"+X c #818181",
"@X c #868686",
"#X c gray53",
"$X c #898989",
"%X c #8E8D89",
"&X c gray55",
"*X c #8D8F8E",
"=X c gray57",
"-X c #939393",
";X c #9A9B96",
":X c gray60",
">X c #9D9D9D",
",X c gray62",
"<X c #9F9F9F",
"1X c #A99F95",
"2X c #B4A181",
"3X c #BBA387",
"4X c #A4A498",
"5X c #A1A09E",
"6X c #AEA498",
"7X c #ABA79C",
"8X c #B1A398",
"9X c #A0A0A0",
"0X c #A4A4A4",
"qX c gray65",
"wX c gray68",
"eX c #AEAEAE",
"rX c #AFAFAF",
"tX c #B1ADA2",
"yX c gray69",
"uX c gray72",
"iX c gray75",
"pX c #D8C2AD",
"aX c #C7C0B0",
"sX c #C1C2BA",
"dX c #D2C8BF",
"fX c #C0C0C0",
"gX c #C4C6C1",
"hX c gray77",
"jX c gray80",
"kX c #CDCDCD",
"lX c #D6D1CE",
"zX c #D9D9D7",
"xX c #EADED0",
"cX c #E9E2DC",
"vX c #E1E1E1",
"bX c gray89",
/* pixels */
"                        Y       e   | | c g z.2XF.e ~ e     c c                 ",
"                  Y               g c | c [ K.2X1X4.e e g   c c                 ",
"                            Y       c c c e 8.}.l.>.e     p c c                 ",
"                      Y             ..c   ~ P.].~   e   g c c c                 ",
"                                Y   G   e ;.XXb.' c       c c c                 ",
"                          Y           ' ~ 9.3X0.e c       c c                   ",
"                              Y G   e ~ ;.k.oX:.~ o.    @.c   e                 ",
"                            Y f.*.e ~ ~ ) Y.L.) _           Y                   ",
"                            $.2.(.e.e ~ x.pXv.) _ H   H                         ",
"                              Y w.%X7X[.T.|. X~         e e                     ",
"                                    H.aXc.j.U.F.<.&.i.y.    Y                   ",
"                                Y {   I..XR.6XtX;X).Z.w.e e                     ",
"                                    ] _.xX8Xe       g   e e   H                 ",
"                                c   3.4XdX{.g       g g e e c c                 ",
"                                c   s.sXcXS.  o.  g     ~ e c +.                ",
"                                c   J.gXlX,.O.c       g e e c c                 ",
"                                    *XzX5X                                      ",
"                                  =.,XbX~.                                      ",
"                                  t.yXbXu.                                      ",
"                                  n.iXfXY                                       ",
"                                  Q.kX@X                                        ",
"                                $.*XkXN.Y                                       ",
"                                u.qXuX6.Y                                       ",
"                                B.yX,X                                          ",
"                                (.hX(.                                          ",
"                              1.@XiXh.  Y                                       ",
"                          Y   p.,XwX=.                                          ",
"                          Y   B.qX@X  Y                                         ",
"                            Y ~.wXA.  Y                                         ",
"                Y           6.OXwXt.                                            ",
"                            f.=X=XY                                             ",
"                          Y M.9X(.  Y                                           ",
"                  Y       Y E.qXg.Y       Y                                     ",
"                    Y   Y 6.'.=X2.                                              ",
"                      Y   f.$X`.                                                ",
"                  Y   Y   B.:XD.  Y                                             ",
"                        Y D.,Xp.  Y                                             ",
"                          E.OXY                                                 ",
"                      $.  E.N.                                                  ",
"                          M.$.                                                  "
};
