/* XPM */
static char *ed65a73e5a4c4a8c8d0fa4874562f7093GRfdHU5OIu03o7E[] = {
/* columns rows colors chars-per-pixel */
"40 40 171 2 ",
"   c #471D00",
".  c #4A1F00",
"X  c #4C2300",
"o  c #4F2900",
"O  c #522600",
"+  c #542B01",
"@  c #5A2E01",
"#  c #5B2F08",
"$  c #563003",
"%  c #5C3304",
"&  c #5D350B",
"*  c #5F390D",
"=  c #623504",
"-  c #643905",
";  c #683A05",
":  c #62360A",
">  c #643B0C",
",  c #6A3D0B",
"<  c #653C12",
"1  c #6A3E12",
"2  c #643C18",
"3  c #6C410E",
"4  c #71430E",
"5  c #664013",
"6  c #6C4313",
"7  c #6D4813",
"8  c #6C431A",
"9  c #6E481C",
"0  c #734514",
"q  c #784615",
"w  c #734915",
"e  c #794B16",
"r  c #72461A",
"t  c #7A4718",
"y  c #744A1B",
"u  c #7A4D1C",
"i  c #7C511D",
"p  c #6F4A20",
"a  c #744C21",
"s  c #794E22",
"d  c #764E2A",
"f  c #784E28",
"g  c #765122",
"h  c #7D5324",
"j  c #775228",
"k  c #7E542A",
"l  c #7E5831",
"z  c #835017",
"x  c #83531D",
"c  c #825523",
"v  c #895726",
"b  c #855925",
"n  c #8A5B25",
"m  c #82562B",
"M  c #855A2B",
"N  c #8B5D2B",
"B  c #925D26",
"V  c #925F2D",
"C  c #855C31",
"Z  c #895E32",
"A  c #86602F",
"S  c #8D612D",
"D  c #91622E",
"F  c #866133",
"G  c #8C6233",
"H  c #8D643A",
"J  c #8F693C",
"K  c #926433",
"L  c #996635",
"P  c #906835",
"I  c #946837",
"U  c #956935",
"Y  c #996B37",
"T  c #9A6A34",
"R  c #926539",
"E  c #926A39",
"W  c #91683A",
"Q  c #946839",
"!  c #976938",
"~  c #976B3A",
"^  c #936B3B",
"/  c #996939",
"(  c #9B6938",
")  c #986A39",
"_  c #98693B",
"`  c #996B3A",
"'  c #986D38",
"]  c #986F3B",
"[  c #9E6C39",
"{  c #9C6E3A",
"}  c #9E6F3B",
"|  c #9D6D3F",
" . c #9B6D3B",
".. c #9D7039",
"X. c #9F703A",
"o. c #9F713D",
"O. c #9F713F",
"+. c #9B713E",
"@. c #A16F3A",
"#. c #A06D3E",
"$. c #A06C3D",
"%. c #A0713D",
"&. c #A2753E",
"*. c #A2753E",
"=. c #A8773F",
"-. c #956C41",
";. c #9D6E41",
":. c #967144",
">. c #9D7140",
",. c #9E7243",
"<. c #9F7441",
"1. c #9C7343",
"2. c #9E744A",
"3. c #A17341",
"4. c #A57141",
"5. c #A57342",
"6. c #A37543",
"7. c #A27442",
"8. c #A47443",
"9. c #A47642",
"0. c #A77344",
"q. c #A27744",
"w. c #A07447",
"e. c #A37446",
"r. c #A47645",
"t. c #A57746",
"y. c #A37443",
"u. c #A67844",
"i. c #A47B47",
"p. c #A77945",
"a. c #A27649",
"s. c #A2764A",
"d. c #A87548",
"f. c #A37A4B",
"g. c #A97B49",
"h. c #AB7B4A",
"j. c #A87D4A",
"k. c #AC7E4A",
"l. c #A8794D",
"z. c #A87C4D",
"x. c #AD7F4E",
"c. c #AF7F4E",
"v. c #AB7C4A",
"b. c #B17F4A",
"n. c #A77E52",
"m. c #A97E53",
"M. c #AC824E",
"N. c #B4834D",
"B. c #B5884F",
"V. c #A58054",
"C. c #AB8350",
"Z. c #AB8253",
"A. c #AF855A",
"S. c #B38551",
"D. c #B28452",
"F. c #B18452",
"G. c #B98752",
"H. c #B3865A",
"J. c #B48B5B",
"K. c #BA8E5D",
"L. c #BC925D",
"P. c #B68C62",
"I. c #B98E61",
"U. c #BC9361",
"Y. c #C4935F",
"T. c #C19365",
"R. c #C99A66",
"E. c #C59C6E",
"W. c #C89D70",
"Q. c #CEA474",
"!. c #D0A270",
/* pixels */
"( 5.8.c.6.K u c i.` >.P h w 1 | 0.5.b.@.K u Z l.( O.~ u r 1 g.%.k.i.Y D 0 O.&.X.",
"K c.K c.K ~ h N C.P G G Z G 1 q.| #.g.N ( 0 q.a.W G K Z G u r.K q.<.S K e f.` K ",
"u h r y h 6 $ X 5 : h y 6 r % y y r y s 6 O @ < 8 k y 6 > : k h y y i : o % > 6 ",
"M y r > > s k F H G J 6 : , M M r r < 1 s c S W H C & 1 6 M m 1 r : w h h W S M ",
"[ S N c w >.>.z.z.>.N , N N [ Y b K w c r.6.S.6.( c 0 K D X.( c S 3 N 3.g.S.8.[ ",
"x 0 0 = , c N k y 6 = X 0 0 e x , t @ u M c u 3 3 @ O , 0 u t w 0 @ N b c 0 , ; ",
"b c i r 1 r 1 k h s k u M = , b c k 6 , 6 6 N u h i u h = u b h s > r 1 y G h i ",
"L.j.>.K G Z r A.m.f.-.z.Q.h S U.f.-.G H G y P.n.<.` J.W.8 2.K.+.^ H ^ y W A.a.>.",
"+.b i M ^ Z & m G k m k ~ 6 i ] M h N W h & Z Z b h N H : R K c Z C H 6 < G M c ",
"e i 6 r = =   % 1 : h u r . 3 u 6 6 r > O X : : , u i > X r u y 1 6 > O O , > 6 ",
"S x q - u K F.~ N K 0 c ` 8.I D c , % c [ k.K D K 4 N 8.[ K S c , , c 6.8.D I N ",
"K N K , S K T.g.N I 0 c 3.8.( v N c 0 K | R.[ v K , N 3.u.Y S G w u K c.Y.N K D ",
"Z Z y O h k G G M N 6 y M u m G N 6 @ M k G b M m 1 m M c S Z M % 1 c h ] h M c ",
": & & O @ & 6 y 6 , O , y r 6 : % + + & % 6 h , , X 1 y , r : % @ O & : 6 y 3 - ",
"r 6 k u u c q.i.e 3 c c h u N = s u u u D r.3., e c b u s k : c t u i K g.I , i ",
"& k Z N K N S S = u N K G N c , M N S S D K m - N N G N Z k = G S N G K G y > S ",
"+ & : 0 1 ; 6 r O % , y r : % @ % : r : : 6 8 O # < r 6 < @ + : : y & : a & o < ",
"V.-.G y Z.;.,.;.M k 9 Z Z.a.I.a.;.M s A.2.s.-.m k : 2.f.2.P.a.^ g F Z.:.:.2.l j ",
"^ F M 6 f.K M M G J g F :.A >.K G e h f.b N F G ^ 6 ^ ^ G ] G P 3 P +.S N h H G ",
"y 6 % X @ = q c 6 , + 7 y e q 0 , % X % > i h : - % e w w e 3 = % . - 3 c r = - ",
": h K K 3.` ;.u > 6 M ~ y r 0 , N S ` 8.( O.= 6 y G K 0 e , , D N 0.| ( L , 0 t ",
", ~ >.;.d.| Q > N H N K K K c 0 K O.| r.~ N > G N G K K K 0 b ~ ;.h.0.` t , Q N ",
"% h r u 0 1 & X o 7 6 s r : & < m y h 1 < %   : < a a , , O y k s a < : @ X < 8 ",
"7 6 , k G G G S +.w % P N K h 6 6 6 H G Z G H ^ 1 6 -.G Z u 6 6 6 ^ H C H ^ F & ",
"N T 4 I S.| D ( Y.=.q B.&.K S N L 0 c.g.3.N | !.N b K.| ( N D N e M.+.] N C.E.y ",
"B v = , M c N c V e - X.S i N D N = u N c N c N , t ` c c v D e % n N b M M N % ",
", = + @ < & 8 a y + = 6 6 : : < % O @ : % y y r X 6 a 6 > % 1 @ o % % & y h < X ",
"G m.H.2.H C 9 : H t.K.>.W ,.< ^ Z.z.>.K M : 6 G J.C.W a.G 6 ,.J.C.~ N c : s R I.",
"b U K N Z R u 3 S D Y.D x N 6 M I T N x S 4 e n &.L.S n n 4 n U S n b D ; x K k.",
"x i c c N u : % c x n x v c % M c x b b u @ , c i n c N 0 - N c c N x 0 @ 4 x x ",
", 3 r 6 # * % + @ = e u r % @ 8 6 1 1 @ : @ @ @ 1 k k 1 : @ r > r < @ & @ @ % , ",
"v c h C 2 l k k m ] M.>.: M C m k k m 1 Z k k C 2.m.H < C M m k C a 9 Z k m G a.",
"n N m h + C k Z N N M g % k M G M M r * m c G Z M C 8 & Z c G m M < < Z Z G M M ",
"z 4 , > * & > q w - h 6 o @ % y 6 > < : > , e > > M * O % , u , : % , & 0 0 , 3 ",
"T N.i.U.f.,.M K G.8.6.<.M N 6 g.M.M.T.s.| u 8.N.O.q.R Z u 0 N.%.L.U.] +.c S.k.6.",
"B [ M G Z G t w Y c c h G Z , K N n R M Y 3 v S c h C Z N , &.v M M G M = K N c ",
"0 3 y 8 9 2 @ O % , a 9 $ & % y w 9 8 a > o @ % , g 2 & % = 0 6 y y 6 @ O @ , 1 ",
"` c a y p -.-.a.C.,.J : j a ;.W y h 2 f R +.M.C.>.H 2 d M 1.M u k < m -.a.H.;.;.",
"D v K u y G K ( S G s * Z M K D N S r f ( K U N N 6 2 Z c S K S G 3 M K K K K b ",
"x 0 0 % 1 c u u 4 , & + , , q x 4 - @ s u e i , , % + 8 - x x 4 3 @ h u i w , , "
};
